<svg xmlns="http://www.w3.org/2000/svg" xml:space="preserve" width="186.125" height="161.25"><path d="M0 0v15.7L-11.3 4.4a33.27 33.27 0 0 1 3.44-2.11c1.08-.567 2.09-1 3.03-1.34.941-.334 1.81-.562 2.62-.71C-1.406.093-.67.027 0 .018m57.8 1.3c.02-.017.13-.11.333-.239a5.89 5.89 0 0 1 .898-.462 8.098 8.098 0 0 1 1.48-.448c.596-.122 1.29-.202 2.1-.202.671 0 1.41.059 2.22.2.812.142 1.69.367 2.64.699a23.4 23.4 0 0 1 3.07 1.34c1.09.572 2.26 1.28 3.5 2.14l-8.57 8.4-28.4 28.5-12.5-12.5-16.8 17.3-42.2-41.7c1.24-.86 2.4-1.56 3.49-2.14 1.09-.571 2.12-1.01 3.07-1.34a16.71 16.71 0 0 1 2.64-.698 12.85 12.85 0 0 1 2.22-.201c.804 0 1.5.08 2.1.202a7.78 7.78 0 0 1 1.48.449c.396.164.693.331.897.461.204.13.314.223.334.24l19.1 19.1 6.81 6.53 18.9-18.9 6.59-6.78c.02-.017.13-.11.334-.239a5.87 5.87 0 0 1 .897-.462c.396-.164.89-.327 1.48-.448.596-.122 1.3-.202 2.1-.202.67 0 1.41.059 2.22.2.811.142 1.69.367 2.64.699.952.333 1.98.773 3.07 1.34 1.09.572 2.26 1.28 3.5 2.14l-15.1 14.8 2.82 2.82 13.1-13.1 7.64-7.57m-.163 79 37.2-64.5-37.2-64.5h-74.5l-37.2 64.5 37.2 64.5z" style="fill:#000;fill-opacity:1" transform="matrix(1.25 0 0 -1.25 67.45 100.309)"/><path d="m0 0-9.91 9.9.705.709L.775.739z" style="fill:#000;fill-opacity:1" transform="matrix(1.25 0 0 -1.25 111.2 76.559)"/></svg>