<svg xmlns="http://www.w3.org/2000/svg" width="256" height="256"><path d="M128 0c-11.395 27.937-18.313 46.237-31 73.344 7.779 8.245 17.338 17.812 32.844 28.656-16.67-6.86-28.034-13.729-36.531-20.875C77.076 115.005 51.622 163.246 0 256c40.563-23.418 72.008-37.862 101.313-43.375-1.254-5.404-1.924-11.278-1.876-17.375l.032-1.281c.644-25.994 14.17-45.982 30.187-44.625s28.488 23.537 27.844 49.531c-.121 4.896-.69 9.6-1.656 13.969C184.834 218.517 215.982 232.897 256 256a14843 14843 0 0 1-21.687-40.094c-10.597-8.212-21.644-18.897-44.188-30.469 15.496 4.027 26.602 8.683 35.25 13.875C156.98 71.973 151.455 55.04 128 0" style="fill:#fff;fill-opacity:1"/><path d="M818.226 548.553c-41.181-55.895-50.727-100.945-53.145-111.7 21.968 50.668 21.818 51.29 53.145 111.7" style="fill:#fff;fill-opacity:1" transform="translate(-902.4 -586.945)scale(1.34737)"/><path d="M765.098 436.435c-1.056 2.597-2.086 5.117-3.061 7.515-1.082 2.655-2.11 5.19-3.132 7.677a1118 1118 0 0 1-3.038 7.306 752 752 0 0 1-3.038 7.143c-1.028 2.382-2.062 4.789-3.155 7.236a619 619 0 0 1-3.432 7.538 686 686 0 0 1-3.804 8.095c-.186.39-.413.834-.603 1.229 5.755 6.096 12.841 13.15 24.284 21.152-12.34-5.078-20.766-10.157-27.067-15.446-.327.667-.614 1.264-.951 1.948-.444.9-.976 1.923-1.438 2.853-.81 1.66-1.656 3.365-2.528 5.125-.335.667-.63 1.243-.974 1.925-5.508 11.053-12.34 24.283-21.13 40.728 24.096-13.576 50.086-33.163 97.297-16.305a1624 1624 0 0 1-6.587-12.64 1193 1193 0 0 1-5.706-11.156 865 865 0 0 1-4.917-9.927 671 671 0 0 1-4.267-8.906 563 563 0 0 1-3.758-8.165 521 521 0 0 1-3.363-7.584 548 548 0 0 1-3.084-7.306 692 692 0 0 1-2.946-7.236c-.348-.866-.695-1.769-1.044-2.644-2.663-6.253-5.398-12.732-8.558-20.155" style="fill:#fff;fill-opacity:1" transform="translate(-902.4 -586.945)scale(1.34737)"/></svg>