<svg xmlns="http://www.w3.org/2000/svg" width="512.041" height="502.439" viewBox="0 0 135.478 132.937"><path d="M67.775 0C30.366 0 .079 29.732.012 66.439H0v51.43h.012c.018 8.325 6.903 15.068 15.393 15.068H67.78c37.415-.024 67.697-29.752 67.697-66.439C135.478 29.792 105.157.06 67.715.06zm13.771 27.338-.007.02c11.376 0 22.116 8.543 22.116 20.328 0 1.094.007 2.187-.176 3.427-.315 3.135-3.236 5.388-6.417 4.946-3.181-.447-5.34-3.41-4.752-6.509.054-.354.074-.91.074-1.865 0-6.683-5.576-9.264-10.846-9.264-5.27 0-10.019 4.346-10.026 9.264.091 5.687 0 11.33 0 17.007l9.78-.071c7.637-.155 7.723 11.123.089 11.07l-9.867.072c-.024 4.574.036 3.747.012 6.05 0 0 .083 5.595-.087 9.834-1.18 12.454-11.99 22.407-24.98 22.407-13.772 0-25.114-11.038-25.114-24.577.413-13.923 11.733-24.875 25.993-24.75l7.954-.058v11.05l-7.954.073h-.042c-7.835.227-14.552 5.447-14.677 13.678 0 7.498 6.176 13.506 13.843 13.506 7.657 0 13.784-5.464 13.784-13.493l-.012-41.855c.005-.777.03-1.394.117-2.251 1.292-10.238 10.627-18.04 21.195-18.04z" style="fill:#000;fill-opacity:1"/></svg>