<svg xmlns="http://www.w3.org/2000/svg" id="Layer_1" data-name="Layer 1" version="1.1" viewBox="0 0 767.407 738.314"><defs id="defs1"><style id="style1">.cls-1{fill:#e9500e}</style></defs><circle id="circle1" cx="109.027" cy="348.094" r="109.027" class="cls-1" style="fill:#000;fill-opacity:1"/><circle id="circle2" cx="563.084" cy="109.027" r="109.027" class="cls-1" style="fill:#000;fill-opacity:1"/><path id="path2" d="M492.482 1336.666a265.525 265.525 0 0 1-181.071-138.098 156.948 156.948 0 0 1-93.22 11.458A354.935 354.935 0 0 0 473.73 1424.19a359.208 359.208 0 0 0 77.42 7.967 156.003 156.003 0 0 1-31.923-91.154 271.194 271.194 0 0 1-26.744-4.337Z" class="cls-1" style="fill:#000;fill-opacity:1" transform="translate(-137.562 -707.98)"/><circle id="circle3" cx="538.52" cy="629.287" r="109.027" class="cls-1" style="fill:#000;fill-opacity:1"/><path id="path3" d="M827.798 1297.22a356.7 356.7 0 0 0 17.875-418.518 157.144 157.144 0 0 1-61.31 71.803 267.293 267.293 0 0 1-8.737 265.488 156.347 156.347 0 0 1 52.172 81.228Z" class="cls-1" style="fill:#000;fill-opacity:1" transform="translate(-137.562 -707.98)"/><path id="path4" d="M238.176 899.72q4.15-.229 8.306-.226a157.346 157.346 0 0 1 82.682 23.545 265.907 265.907 0 0 1 214.108-114.51 158.088 158.088 0 0 1 33.076-88.42c-137.103-10.857-270.324 59.892-338.172 179.61Z" class="cls-1" style="fill:#000;fill-opacity:1" transform="translate(-137.562 -707.98)"/></svg>